<svg xmlns="http://www.w3.org/2000/svg" version="1.1" xmlns:xlink="http://www.w3.org/1999/xlink" xmlns:svgjs="http://svgjs.dev/svgjs" width="100%" height="100%" viewBox="0 0 1000 600"><rect width="1000" height="600" x="0" y="0" fill="#f5f4f4"/><g><rect width="333.3333333333333" height="333.3333333333333" rx="13.333333333333334" ry="13.333333333333334" y="200.88871494754557" fill="#cae4db" transform="matrix(0.6996274603111728,0,0,0.6996274603111727,0,42.84814048660863)" x="178.66651916503906"/><path d="M356.15148619978595 442.5553761046619L333.6826934006523 442.5553761046619L289.16119655792454 315.64830566511074Q287.02131152943565 309.4664155828095 285.41639775806897 307.6237368082774Q283.8114839867022 305.8107786591409 279.53171392972445 304.9488805226662L279.53171392972445 304.9488805226662L270.97217381576877 303.2548048751125L270.97217381576877 292.5553797326679L327.4710826929553 292.5553797326679L327.4710826929553 302.6009511164075L315.70171503626625 304.1167030115872Q312.28384311576315 304.5327917671267 310.76809122058347 306.25658804007605Q309.2820599507995 307.9506636876298 311.42194497928847 314.8161281540318L311.42194497928847 314.8161281540318L347.5919460858303 424.15830898473627L348.45384422230495 424.15830898473627L384.59412470345114 316.094115046046Q386.31792097640056 310.53635809705395 385.36686096373876 308.0695461892126Q384.3860803256814 305.6027342813711 379.69022151316403 304.74083614489643L379.69022151316403 304.74083614489643L369.1988407484892 302.39290673863775L369.1988407484892 292.5553797326679L419.69418329574853 292.5553797326679L419.69418329574853 302.6009511164075L409.20280253107364 304.32474738935696Q405.5768862328008 304.9488805226662 403.8530899598514 306.99960367496806Q402.15901431229764 309.02060620187433 399.811084906039 315.8860706682762L399.811084906039 315.8860706682762L356.15148619978595 442.5553761046619Z " fill="#cdac81" transform="matrix(0.6996274603111728,0,0,0.6996274603111727,0,42.84814048660863)"/><path d="M677.0587772369474 411.70672296249046L677.0587772369474 411.70672296249046Q671.5637280877868 411.70672296249046 667.7447750111501 409.9457612660413Q663.9258219345132 408.18479956959214 660.8706594732039 403.9203019673477Q657.8154970118944 399.63458795912203 654.6118197087158 392.1451966477177L654.6118197087158 392.1451966477177L647.2709432391806 374.5780124951885Q645.1493026410491 369.5497242776167 643.3034753206746 366.409696192382Q641.4788644062814 363.2696681071473 638.7207316287105 361.8269525004179Q635.9838152571208 360.3842368936884 630.9343106335677 360.3842368936884L630.9343106335677 360.3842368936884Q628.9399684713242 360.3842368936884 627.2638723988002 360.4478861116324Q625.5877763262763 360.5327517355577 624.0601950956216 360.8297814192961L624.0601950956216 360.8297814192961L624.0601950956216 393.5242630365032Q624.0601950956216 397.49173095500913 625.2058810186126 399.16782702753306Q626.3515669416036 400.86513950603836 629.7037590866514 401.16216918977676L629.7037590866514 401.16216918977676L640.3968277012344 402.392720736693L640.3968277012344 409.5638659583777L595.3331813969205 409.5638659583777L595.3331813969205 402.392720736693L604.2016390971103 401.01365434790756Q607.1082867165505 400.5468934163186 608.0205921737471 399.01931218566386Q608.9328976309437 397.49173095500913 608.9328976309437 393.2272333527647L608.9328976309437 393.2272333527647L608.9328976309437 318.2060218028334Q608.9328976309437 314.38706872619656 607.9357265498218 312.94435311946717Q606.9597718746813 311.5016375127377 603.9046094133719 311.03487658114875L603.9046094133719 311.03487658114875L595.3331813969205 309.6558101923632L595.3331813969205 302.48466497067864L633.6924434111388 302.48466497067864Q643.7702362522637 302.48466497067864 651.4717916234811 304.2456266671278Q659.19456340068 305.9853719575957 664.307717242177 309.4224297265688Q669.420871083674 312.85948749554194 672.0941382373196 317.9938577430202Q674.7674053909655 323.10701158451724 674.7674053909655 329.8326122805942L674.7674053909655 329.8326122805942Q674.7674053909655 333.80008019910025 673.4732046261051 337.53416765181174Q672.179003861245 341.2894715105046 669.8027663913376 344.5567980316271Q667.4477453274117 347.845340958731 664.0743367763824 350.51860811237674Q660.7221446313347 353.1918752660226 656.6698110889033 355.10135180434094Q652.6174775464722 357.0108283426593 648.034733854508 357.77461895798666L648.034733854508 357.77461895798666L648.034733854508 358.2413798895756Q653.8480290933884 359.91747596209956 657.4336017042307 362.9726384234089Q661.0191743150731 366.0278008847184 663.6287922507748 372.2866406492064L663.6287922507748 372.2866406492064L668.9753265580663 384.8255365841639Q671.2666984040484 390.0023396436048 673.0913093184415 393.8212927202416Q674.9371366388159 397.64024579687833 677.4406725446112 399.63458795912203Q679.9654248563877 401.6289301213656 684.1026240227442 401.6289301213656L684.1026240227442 401.6289301213656Q685.4604740055483 401.6289301213656 686.9880552362031 401.31068403164596Q688.5156364668578 401.01365434790756 690.9767395606904 400.2498637325802L690.9767395606904 400.2498637325802L692.5043207913451 405.59639803987164Q689.2794270821852 408.6515605011811 685.4604740055483 410.1791417318357Q681.6415209289116 411.70672296249046 677.0587772369474 411.70672296249046ZM632.6104067060917 353.1918752660226L632.6104067060917 353.1918752660226Q640.8635886328234 353.1918752660226 646.5920182477785 350.6034737363021Q652.3204478627338 347.9938558006002 655.3756103240431 342.8807019591032Q658.4307727853526 337.76754811760617 658.4307727853526 330.7449177377908L658.4307727853526 330.7449177377908Q658.4307727853526 323.7222873579754 655.6726400077815 319.28805850788046Q652.9357236361918 314.8538296577855 647.2709432391806 312.7109726536727Q641.6273792481506 310.5681156495598 632.6104067060917 310.5681156495598L632.6104067060917 310.5681156495598L624.0601950956216 310.5681156495598L624.0601950956216 352.89484558228406Q626.9668427150618 353.0433604241534 629.0248340952494 353.1282260480786Q631.082825475437 353.1918752660226 632.6104067060917 353.1918752660226ZM740.6231295569685 411.70672296249046L740.6231295569685 411.70672296249046Q729.3147851689274 411.70672296249046 720.9130884003265 406.89059880473184Q712.5113916317256 402.07447464697333 707.9922971577054 393.2908825707087Q703.4944190896665 384.50729049444413 703.4944190896665 372.60488673892615L703.4944190896665 372.60488673892615Q703.4944190896665 359.4507150305106 708.2256776234999 349.9033323389187Q712.9569361573332 340.35594964732667 721.8253938575231 335.17914658788567Q730.693851557713 329.9811271224634 742.7447701551 329.9811271224634L742.7447701551 329.9811271224634Q753.904599701272 329.9811271224634 762.0092667861344 334.7123856562968Q770.0927174650157 339.4436441901301 774.5269463151105 348.1635870484508Q778.9611751652055 356.8623135007901 778.9611751652055 368.7859336622893L778.9611751652055 368.7859336622893Q778.9611751652055 381.77037412285443 774.2299166313721 391.46627165631554Q769.4774416915575 401.16216918977676 760.9272300810874 406.423837873143Q752.3770184706173 411.70672296249046 740.6231295569685 411.70672296249046ZM742.7447701551 402.392720736693L742.7447701551 402.392720736693Q749.4703708511771 402.392720736693 754.0531145431412 398.9556629677199Q758.6358582351053 395.5186051987468 761.0120957050127 388.7930045026698Q763.3671167689387 382.06740380659284 763.3671167689387 372.4351554910756L763.3671167689387 372.4351554910756Q763.3671167689387 364.50021965406364 761.77588632034 358.3050291075196Q760.16343946576 352.1310549669568 757.1931426283759 347.78169174078715Q754.2016293850104 343.41111210863613 749.937131782766 341.11974026265403Q745.6514177745403 338.82836841667194 740.3048834672488 338.82836841667194L740.3048834672488 338.82836841667194Q733.4307679293025 338.82836841667194 728.6995093954692 342.20177696770116Q723.968250861636 345.5539691127489 721.4434985498593 351.9825401250875Q718.9187462380828 358.3898947314448 718.9187462380828 368.02214304696207L718.9187462380828 368.02214304696207Q718.9187462380828 378.86372650341417 721.8253938575231 386.5016326566877Q724.7320414769632 394.1395388099614 730.0785757842548 398.2555215703365Q735.4251100915462 402.392720736693 742.7447701551 402.392720736693ZM864.6542389237385 411.70672296249046L864.6542389237385 411.70672296249046Q856.8678179285957 411.70672296249046 849.4632922411166 408.9485901849195Q842.0375501476562 406.2116738133298 837.1577767719538 401.45919887351516L837.1577767719538 401.45919887351516L834.7178900841025 410.47617141557424L828.1408042298947 410.47617141557424L825.0856417685852 377.48466011462875L833.6358533790553 376.7208694993014Q835.9272252250374 382.9797092637894 838.9823876863469 387.795833421548Q842.0375501476562 392.61195757930665 845.9413688482183 395.73076925856Q849.8451875487804 398.87079734379466 854.4279312407444 400.4832441983746Q859.0106749327086 402.07447464697333 864.1874779921496 402.07447464697333L864.1874779921496 402.07447464697333Q870.7645638463574 402.07447464697333 875.1987926964522 400.01648326678566Q879.6330215465472 397.9584918865981 881.9243933925292 393.99102396809207Q884.2157652385114 390.0023396436048 884.2157652385114 384.50729049444413L884.2157652385114 384.50729049444413Q884.2157652385114 378.71521166154497 881.9243933925292 374.6628781191137Q879.6330215465472 370.61054457668246 874.3501364571997 367.4068672735039Q869.0884677738335 364.20318997032524 860.2200100736435 361.4450571927543L860.2200100736435 361.4450571927543Q851.5212836213043 358.6869244151832 845.5594735405547 355.63176195387376Q839.597663459805 352.5765994925644 835.9272252250374 348.92737766377815Q832.2780033962512 345.2569394290105 830.580690917746 340.52568089517723Q828.904594845222 335.7732059553626 828.904594845222 329.8326122805942L828.904594845222 329.8326122805942Q828.904594845222 324.48607797330277 830.4321760758768 319.96698349928255Q831.9597573065315 315.4691054312437 834.7815393020463 311.8835328204014Q837.6245377035426 308.2767438035778 841.6556548399926 305.6883422738573Q845.7079883824239 303.0999407441368 850.7574930059769 301.72087435535127Q855.7857812235487 300.3418079665658 861.599076462429 300.3418079665658L861.599076462429 300.3418079665658Q867.8579162269172 300.3418079665658 873.9045919315921 302.48466497067864Q879.9300512302856 304.62752197479153 884.2157652385114 308.2767438035778L884.2157652385114 308.2767438035778L886.1888909947737 300.3418079665658L893.2115213745891 300.3418079665658L896.5849299256182 331.36019351124895L888.3317479988865 332.5695286521839Q886.0403761529045 324.3163467254522 882.306288700193 319.054678042086Q878.5509848415 313.79300935871976 873.5863458418723 311.18339142301795Q868.6217068422445 308.59498989329745 862.0658373940181 308.59498989329745L862.0658373940181 308.59498989329745Q853.8126554672864 308.59498989329745 848.6995016257893 313.24138280320557Q843.565131378311 317.908992119095 843.565131378311 325.54689827236854L843.565131378311 325.54689827236854Q843.565131378311 330.5964028959216 845.8565032242931 334.24562472470785Q848.1478750702751 337.91606295947537 853.3458945356973 340.90757620284086Q858.5439140011197 343.8778730402251 867.4123717013096 346.93303550153445L867.4123717013096 346.93303550153445Q876.1110981536489 349.8396831209747 882.2214230762677 353.1282260480786Q888.3317479988865 356.39555256920113 892.002186233654 360.150856427894Q895.6726244684218 363.8849438806055 897.3487205409456 368.4676875725697Q899.0248166134695 373.05043126453376 899.0248166134695 379.01224134528337L899.0248166134695 379.01224134528337Q899.0248166134695 386.18338656696807 896.500064301693 392.1451966477177Q893.9753119899163 398.1070067284673 889.3925682979524 402.5412355785622Q884.8098246059882 406.9754644286572 878.4873356235561 409.33048549258314Q872.1436302351428 411.70672296249046 864.6542389237385 411.70672296249046ZM953.7207112333007 409.5638659583777L916.2949710822603 409.5638659583777L916.2949710822603 402.5412355785622L923.3176014620757 401.16216918977676Q925.9060029917962 400.6954082581878 926.7546592310488 399.16782702753306Q927.5820990643201 397.64024579687833 927.5820990643201 393.8212927202416L927.5820990643201 393.8212927202416L927.5820990643201 311.03487658114875Q927.5820990643201 305.6883422738573 926.4364131413291 304.07589541927734Q925.290727218338 302.48466497067864 921.0262296160936 301.86938919722047L921.0262296160936 301.86938919722047L914.3006289200166 300.8085688981547L915.2129343772132 293.31917758675036L940.1209949992775 292.555386971423L941.7970910718014 294.2314830439469L941.7970910718014 342.81705274115933L941.7970910718014 344.1749027239635Q945.3190144646998 337.76754811760617 952.3416448445151 333.8637294170442Q959.3642752243305 329.9811271224634 967.2992110613426 329.9811271224634L967.2992110613426 329.9811271224634Q975.4038781462051 329.9811271224634 980.8989272953658 332.95142395984766Q986.3939764445264 335.94293720321303 989.3006240639667 341.7350160361122Q992.2072716834069 347.5483112749926 992.2072716834069 356.0985228854627L992.2072716834069 356.0985228854627L992.2072716834069 395.05184426715783Q992.2072716834069 398.4040364122057 992.9710622987342 399.5497223351968Q993.7348529140617 400.6954082581878 996.9385302172402 401.31068403164596L996.9385302172402 401.31068403164596L1004.1308918449062 402.5412355785622L1004.1308918449062 409.5638659583777L966.7051516938658 409.5638659583777L966.7051516938658 402.6897504204314L973.4095359839614 401.45919887351516Q976.3161836034016 400.86513950603836 977.1648398426543 399.63458795912203Q977.9922796759255 398.4040364122057 977.9922796759255 395.05184426715783L977.9922796759255 395.05184426715783L977.9922796759255 360.3842368936884Q977.9922796759255 353.1918752660226 976.549564069196 348.92737766377815Q975.1068484624667 344.64166365555246 971.7334399114375 342.732187117234Q968.3812477663897 340.82271057891563 962.7164673693784 340.82271057891563L962.7164673693784 340.82271057891563Q956.4576276048904 340.82271057891563 951.7263690710571 343.41111210863613Q946.9951105372237 346.0207300443379 944.3854926015218 350.8368542020965Q941.7970910718014 355.63176195387376 941.7970910718014 362.06033296621234L941.7970910718014 362.06033296621234L941.7970910718014 394.4365684936998Q941.7970910718014 397.8099770447289 942.5608816871288 399.16782702753306Q943.3246723024561 400.5468934163186 945.6160441484382 401.01365434790756L945.6160441484382 401.01365434790756L953.7207112333007 402.6897504204314L953.7207112333007 409.5638659583777ZM1038.1832234449175 411.70672296249046L1038.1832234449175 411.70672296249046Q1028.5721915353815 411.70672296249046 1022.6740306725759 406.04194256547925Q1016.7970862157515 400.3983785744494 1016.7970862157515 391.0843763486519L1016.7970862157515 391.0843763486519Q1016.7970862157515 382.682679580051 1020.997934600052 377.48466011462875Q1025.1987829843524 372.2866406492064 1034.8310312998697 369.61337349556067Q1044.4420632094057 366.94010634191494 1060.6513973791305 366.1763157265876L1060.6513973791305 366.1763157265876L1060.6513973791305 355.63176195387376Q1060.6513973791305 349.37292218938575 1058.890435682681 345.40545427087983Q1057.129473986232 341.4379863523738 1053.5439013753899 339.52850981405544Q1049.9583287645473 337.61903327573697 1044.1450335256668 337.61903327573697L1044.1450335256668 337.61903327573697Q1040.0290507652917 337.61903327573697 1035.9767172228608 338.9132340405973Q1031.9243836804294 340.20743480545747 1029.9300415181856 342.20177696770116L1029.9300415181856 342.20177696770116Q1031.4576227488405 344.49314881368315 1032.3911446120183 346.1692448862071Q1033.3034500692147 347.845340958731 1033.6853453768786 348.9910268817221Q1034.0672406845424 350.1367128047131 1034.0672406845424 350.9005034200405L1034.0672406845424 350.9005034200405Q1034.0672406845424 353.80715103948063 1031.6910032146347 355.8014932017243Q1029.3359821507088 357.77461895798666 1025.8140587578105 357.77461895798666L1025.8140587578105 357.77461895798666Q1021.6980759974352 357.77461895798666 1019.4067041514533 355.7166275777991Q1017.1153323054712 353.65863619761143 1017.1153323054712 349.8396831209747L1017.1153323054712 349.8396831209747Q1017.1153323054712 344.49314881368315 1021.1464494419212 339.97405433966304Q1025.1987829843524 335.4761762716242 1031.839518056504 332.7180434940531Q1038.5014695346372 329.9811271224634 1046.2878905297798 329.9811271224634L1046.2878905297798 329.9811271224634Q1055.8989224393158 329.9811271224634 1062.242627827729 332.95142395984766Q1068.5863332161425 335.94293720321303 1071.726361301377 342.05326212583196Q1074.8451729806304 348.1635870484508 1074.8451729806304 357.47758927424826L1074.8451729806304 357.47758927424826L1074.8451729806304 394.4365684936998Q1074.8451729806304 397.8099770447289 1076.6061346770798 399.48607311725283Q1078.367096373529 401.16216918977676 1081.7192885185768 401.16216918977676L1081.7192885185768 401.16216918977676Q1083.3953845911005 401.16216918977676 1085.092697069606 400.86513950603836Q1086.7687931421297 400.5468934163186 1088.9116501462427 399.93161764286043L1088.9116501462427 399.93161764286043L1090.4392313768972 405.59639803987164Q1087.6810985993263 408.18479956959214 1083.7136306808202 409.9457612660413Q1079.7461627623143 411.70672296249046 1076.3727542112852 411.70672296249046L1076.3727542112852 411.70672296249046Q1069.8168847630586 411.70672296249046 1066.210095746235 408.26966519351737Q1062.6245231353928 404.8326074245443 1061.8607325200655 398.1070067284673L1061.8607325200655 398.1070067284673Q1058.9540849006253 402.6897504204314 1055.4533779137082 405.6600472578156Q1051.93145452081 408.6515605011811 1047.6669569185653 410.1791417318357Q1043.3812429103396 411.70672296249046 1038.1832234449175 411.70672296249046ZM1043.9965186837976 401.31068403164596L1043.9965186837976 401.31068403164596Q1048.7277772176312 401.31068403164596 1052.4618646703425 399.16782702753306Q1056.2171685290355 397.04618642940153 1058.4236747510922 393.375748194634Q1060.6513973791305 389.7053099598664 1060.6513973791305 385.1225662679023L1060.6513973791305 385.1225662679023L1060.6513973791305 373.9627367217303Q1050.8706342217438 373.9627367217303 1044.3784139914615 375.6600492002356Q1037.8861937611791 377.33614527275944 1034.7461656759442 380.77320304173264Q1031.627353996691 384.21026081070573 1031.627353996691 389.408280276128L1031.627353996691 389.408280276128Q1031.627353996691 394.90332942528863 1034.9795461417389 398.1070067284673Q1038.3317382867867 401.31068403164596 1043.9965186837976 401.31068403164596ZM1142.0587471294375 409.5638659583777L1099.6047187608256 409.5638659583777L1099.6047187608256 402.392720736693L1106.9243788243793 401.01365434790756Q1109.3642655122308 400.5468934163186 1110.128056127558 399.1041778095891Q1110.8918467428853 397.64024579687833 1110.8918467428853 393.6727778783724L1110.8918467428853 393.6727778783724L1110.8918467428853 350.6034737363021Q1110.8918467428853 345.2569394290105 1109.9795412856888 343.41111210863613Q1109.0672358284924 341.586501194243 1105.7150436834445 341.11974026265403L1105.7150436834445 341.11974026265403L1098.22565237204 340.05891996358827L1099.1379578292367 332.7180434940531L1119.9088192849445 331.0419474215292L1121.7546466053188 332.1239841265763L1123.4307426778428 345.8722152024687L1123.8762872034504 345.8722152024687Q1128.3105160535454 338.06457780134457 1134.1238112924257 334.0334606648947Q1139.915890125325 329.9811271224634 1146.641490821402 329.9811271224634L1146.641490821402 329.9811271224634Q1153.8338524490678 329.9811271224634 1158.098350051312 333.94859504096945Q1162.384064059538 337.91606295947537 1162.384064059538 344.49314881368315L1162.384064059538 344.49314881368315Q1162.384064059538 348.4606167321892 1161.238378136547 351.1338838858349Q1160.092692213556 353.80715103948063 1157.8013203675737 355.18621742826616Q1155.5099485215917 356.5652838170517 1152.1365399705626 356.5652838170517L1152.1365399705626 356.5652838170517Q1147.872042368318 356.5652838170517 1145.4958048984108 354.80432212060254Q1143.1407838344849 353.0433604241534 1143.1407838344849 349.8396831209747L1143.1407838344849 349.8396831209747Q1143.1407838344849 348.6091315740584 1143.4378135182233 347.3997964331234Q1143.7348432019617 346.1692448862071 1144.434984599345 344.5567980316271Q1145.113909590747 342.96556758302853 1146.0262150479437 340.97122542078483L1146.0262150479437 340.97122542078483Q1142.674022902896 339.2951293482609 1139.0035846681283 340.440815271252Q1135.3331464333608 341.586501194243 1132.2143347541073 344.8750441213469Q1129.0743066688729 348.1635870484508 1127.1011809126103 352.80997995835884Q1125.1068387503667 357.47758927424826 1125.1068387503667 362.6756087396705L1125.1068387503667 362.6756087396705L1125.1068387503667 393.99102396809207Q1125.1068387503667 397.64024579687833 1125.7857637417687 398.9556629677199Q1126.4859051391522 400.2498637325802 1128.9257918270036 400.5468934163186L1128.9257918270036 400.5468934163186L1142.0587471294375 402.5412355785622L1142.0587471294375 409.5638659583777ZM1208.8267767526372 442.55537725932317L1168.642903824026 442.55537725932317L1168.642903824026 435.38423203763847L1175.9837802935613 434.15368049072225Q1178.275152139543 433.85665080698385 1179.3359724386091 432.2442039524038Q1180.3967927376748 430.6529735038052 1180.3967927376748 426.98253526903756L1180.3967927376748 426.98253526903756L1180.3967927376748 350.7519885781713Q1180.3967927376748 344.93869333929086 1179.3359724386091 343.11408242489773Q1178.275152139543 341.2894715105046 1174.7532287466447 340.82271057891563L1174.7532287466447 340.82271057891563L1167.7305983668293 339.91040512171907L1168.9399335077644 332.5695286521839L1190.029041053192 331.0419474215292L1192.0233832154354 331.95425287872575L1192.9356886726323 345.70248395461823L1193.3812331982397 345.70248395461823Q1197.0516714330074 340.20743480545747 1201.1888705993638 336.7703770364844Q1205.304853359739 333.3333192675113 1210.2694923593667 331.65722319498735Q1215.2341313589945 329.9811271224634 1221.047426597875 329.9811271224634L1221.047426597875 329.9811271224634Q1230.3614288236727 329.9811271224634 1236.9172982718992 334.5638708144276Q1243.4943841261065 339.1466145063917 1247.079956736949 347.6968261168618Q1250.665529347791 356.24703772733193 1250.665529347791 368.1706578888313L1250.665529347791 368.1706578888313Q1250.665529347791 381.91888896472364 1246.464680963491 391.6996521221101Q1242.2638325791904 401.45919887351516 1234.2440311182531 406.59356912099344Q1226.2242296573158 411.70672296249046 1214.9371016752561 411.70672296249046L1214.9371016752561 411.70672296249046Q1209.2723212782448 411.70672296249046 1203.692406505159 410.32765657370504Q1198.1337081380543 408.9485901849195 1194.611784745156 406.6572183389374L1194.611784745156 406.6572183389374L1194.611784745156 426.5157743374487Q1194.611784745156 430.1862125722162 1195.6726050442219 431.86230864474015Q1196.754641749269 433.5384047172641 1199.4915581208586 434.00516564885305L1199.4915581208586 434.00516564885305L1208.8267767526372 435.5327468795078L1208.8267767526372 442.55537725932317ZM1213.8550649702092 401.7774449632348L1213.8550649702092 401.7774449632348Q1220.5806656662862 401.7774449632348 1225.3967898240448 398.0221411045421Q1230.2129139818035 394.2880536518306 1232.7164498875986 387.2654232720151Q1235.241202199375 380.2427928921997 1235.241202199375 370.31351489294406L1235.241202199375 370.31351489294406Q1235.241202199375 360.3842368936884 1233.098345195262 353.80715103948063Q1230.9767045971307 347.23006518527285 1226.7758562128301 343.9627386641503Q1222.5750078285296 340.67419573704643 1216.146436816191 340.67419573704643L1216.146436816191 340.67419573704643Q1209.420836120114 340.67419573704643 1204.6259283683366 343.41111210863613Q1199.8098042105785 346.1692448862071 1197.2001862748766 351.1338838858349Q1194.611784745156 356.0985228854627 1194.611784745156 363.1211532652781L1194.611784745156 363.1211532652781L1194.611784745156 395.20035910902715Q1197.6669472064655 398.1070067284673 1203.0983471376821 399.93161764286043Q1208.5085306629176 401.7774449632348 1213.8550649702092 401.7774449632348Z " fill="#00303f" transform="matrix(0.6996274603111728,0,0,0.6996274603111727,0,42.84814048660863)"/></g></svg>